<mxfile host="Electron" modified="2023-07-22T16:03:03.349Z" agent="Mozilla/5.0 (Windows NT 10.0; Win64; x64) AppleWebKit/537.36 (KHTML, like Gecko) draw.io/21.6.1 Chrome/112.0.5615.204 Electron/24.6.1 Safari/537.36" etag="EHrT9jF-91hjS12xt-yh" version="21.6.1" type="device">
  <diagram id="R2lEEEUBdFMjLlhIrx00" name="Page-1">
    <mxGraphModel dx="3306" dy="2210" grid="1" gridSize="10" guides="1" tooltips="1" connect="1" arrows="1" fold="1" page="1" pageScale="1" pageWidth="1100" pageHeight="850" background="#FFFFFF" math="0" shadow="0" extFonts="Permanent Marker^https://fonts.googleapis.com/css?family=Permanent+Marker">
      <root>
        <mxCell id="0" />
        <mxCell id="1" parent="0" />
        <mxCell id="J66KZ8qm6AlZH3b1ATQN-14" style="edgeStyle=orthogonalEdgeStyle;sketch=1;hachureGap=4;jiggle=2;curveFitting=1;orthogonalLoop=1;jettySize=auto;html=1;entryX=0;entryY=0.5;entryDx=0;entryDy=0;fontFamily=Architects Daughter;fontSource=https%3A%2F%2Ffonts.googleapis.com%2Fcss%3Ffamily%3DArchitects%2BDaughter;fontSize=16;" edge="1" parent="1" source="J66KZ8qm6AlZH3b1ATQN-1" target="J66KZ8qm6AlZH3b1ATQN-12">
          <mxGeometry relative="1" as="geometry" />
        </mxCell>
        <mxCell id="J66KZ8qm6AlZH3b1ATQN-1" value="Dispositivo" style="rounded=0;whiteSpace=wrap;html=1;sketch=1;hachureGap=4;jiggle=2;curveFitting=1;fontFamily=Architects Daughter;fontSource=https%3A%2F%2Ffonts.googleapis.com%2Fcss%3Ffamily%3DArchitects%2BDaughter;fontSize=20;fillColor=#d5e8d4;strokeColor=#82b366;" vertex="1" parent="1">
          <mxGeometry x="-210" y="-333" width="200" height="40" as="geometry" />
        </mxCell>
        <mxCell id="J66KZ8qm6AlZH3b1ATQN-16" style="edgeStyle=orthogonalEdgeStyle;sketch=1;hachureGap=4;jiggle=2;curveFitting=1;orthogonalLoop=1;jettySize=auto;html=1;entryX=1;entryY=0.5;entryDx=0;entryDy=0;fontFamily=Architects Daughter;fontSource=https%3A%2F%2Ffonts.googleapis.com%2Fcss%3Ffamily%3DArchitects%2BDaughter;fontSize=16;exitX=0.445;exitY=1.025;exitDx=0;exitDy=0;exitPerimeter=0;" edge="1" parent="1" source="J66KZ8qm6AlZH3b1ATQN-3" target="J66KZ8qm6AlZH3b1ATQN-13">
          <mxGeometry relative="1" as="geometry" />
        </mxCell>
        <mxCell id="J66KZ8qm6AlZH3b1ATQN-3" value="Usuario" style="rounded=0;whiteSpace=wrap;html=1;sketch=1;hachureGap=4;jiggle=2;curveFitting=1;fontFamily=Architects Daughter;fontSource=https%3A%2F%2Ffonts.googleapis.com%2Fcss%3Ffamily%3DArchitects%2BDaughter;fontSize=20;fillColor=#d5e8d4;strokeColor=#82b366;" vertex="1" parent="1">
          <mxGeometry x="230" y="-333" width="200" height="40" as="geometry" />
        </mxCell>
        <mxCell id="J66KZ8qm6AlZH3b1ATQN-24" style="edgeStyle=orthogonalEdgeStyle;sketch=1;hachureGap=4;jiggle=2;curveFitting=1;orthogonalLoop=1;jettySize=auto;html=1;entryX=0.5;entryY=0;entryDx=0;entryDy=0;fontFamily=Architects Daughter;fontSource=https%3A%2F%2Ffonts.googleapis.com%2Fcss%3Ffamily%3DArchitects%2BDaughter;fontSize=16;" edge="1" parent="1" source="J66KZ8qm6AlZH3b1ATQN-4" target="J66KZ8qm6AlZH3b1ATQN-22">
          <mxGeometry relative="1" as="geometry" />
        </mxCell>
        <mxCell id="J66KZ8qm6AlZH3b1ATQN-4" value="Entrenamiento" style="rounded=0;whiteSpace=wrap;html=1;sketch=1;hachureGap=4;jiggle=2;curveFitting=1;fontFamily=Architects Daughter;fontSource=https%3A%2F%2Ffonts.googleapis.com%2Fcss%3Ffamily%3DArchitects%2BDaughter;fontSize=20;fillColor=#d5e8d4;strokeColor=#82b366;" vertex="1" parent="1">
          <mxGeometry x="10" y="-83" width="200" height="40" as="geometry" />
        </mxCell>
        <mxCell id="J66KZ8qm6AlZH3b1ATQN-31" style="edgeStyle=orthogonalEdgeStyle;sketch=1;hachureGap=4;jiggle=2;curveFitting=1;orthogonalLoop=1;jettySize=auto;html=1;entryX=0.5;entryY=0;entryDx=0;entryDy=0;fontFamily=Architects Daughter;fontSource=https%3A%2F%2Ffonts.googleapis.com%2Fcss%3Ffamily%3DArchitects%2BDaughter;fontSize=16;" edge="1" parent="1" source="J66KZ8qm6AlZH3b1ATQN-5" target="J66KZ8qm6AlZH3b1ATQN-30">
          <mxGeometry relative="1" as="geometry" />
        </mxCell>
        <mxCell id="J66KZ8qm6AlZH3b1ATQN-5" value="Deporte de resistencia" style="rounded=0;whiteSpace=wrap;html=1;sketch=1;hachureGap=4;jiggle=2;curveFitting=1;fontFamily=Architects Daughter;fontSource=https%3A%2F%2Ffonts.googleapis.com%2Fcss%3Ffamily%3DArchitects%2BDaughter;fontSize=20;fillColor=#d5e8d4;strokeColor=#82b366;" vertex="1" parent="1">
          <mxGeometry x="250" y="107" width="200" height="50" as="geometry" />
        </mxCell>
        <mxCell id="J66KZ8qm6AlZH3b1ATQN-6" value="Deporte de combate" style="rounded=0;whiteSpace=wrap;html=1;sketch=1;hachureGap=4;jiggle=2;curveFitting=1;fontFamily=Architects Daughter;fontSource=https%3A%2F%2Ffonts.googleapis.com%2Fcss%3Ffamily%3DArchitects%2BDaughter;fontSize=20;fillColor=#d5e8d4;strokeColor=#82b366;" vertex="1" parent="1">
          <mxGeometry x="-230" y="97" width="200" height="50" as="geometry" />
        </mxCell>
        <mxCell id="J66KZ8qm6AlZH3b1ATQN-8" value="Ciclismo" style="rounded=0;whiteSpace=wrap;html=1;sketch=1;hachureGap=4;jiggle=2;curveFitting=1;fontFamily=Architects Daughter;fontSource=https%3A%2F%2Ffonts.googleapis.com%2Fcss%3Ffamily%3DArchitects%2BDaughter;fontSize=20;fillColor=#d5e8d4;strokeColor=#82b366;" vertex="1" parent="1">
          <mxGeometry x="-470" y="320" width="200" height="40" as="geometry" />
        </mxCell>
        <mxCell id="J66KZ8qm6AlZH3b1ATQN-9" value="AcuÃ¡ticos" style="rounded=0;whiteSpace=wrap;html=1;sketch=1;hachureGap=4;jiggle=2;curveFitting=1;fontFamily=Architects Daughter;fontSource=https%3A%2F%2Ffonts.googleapis.com%2Fcss%3Ffamily%3DArchitects%2BDaughter;fontSize=20;fillColor=#d5e8d4;strokeColor=#82b366;" vertex="1" parent="1">
          <mxGeometry x="40" y="320" width="200" height="40" as="geometry" />
        </mxCell>
        <mxCell id="J66KZ8qm6AlZH3b1ATQN-10" value="Atletismo" style="rounded=0;whiteSpace=wrap;html=1;sketch=1;hachureGap=4;jiggle=2;curveFitting=1;fontFamily=Architects Daughter;fontSource=https%3A%2F%2Ffonts.googleapis.com%2Fcss%3Ffamily%3DArchitects%2BDaughter;fontSize=20;fillColor=#d5e8d4;strokeColor=#82b366;" vertex="1" parent="1">
          <mxGeometry x="430" y="320" width="200" height="40" as="geometry" />
        </mxCell>
        <mxCell id="J66KZ8qm6AlZH3b1ATQN-15" style="edgeStyle=orthogonalEdgeStyle;sketch=1;hachureGap=4;jiggle=2;curveFitting=1;orthogonalLoop=1;jettySize=auto;html=1;fontFamily=Architects Daughter;fontSource=https%3A%2F%2Ffonts.googleapis.com%2Fcss%3Ffamily%3DArchitects%2BDaughter;fontSize=16;" edge="1" parent="1" source="J66KZ8qm6AlZH3b1ATQN-12" target="J66KZ8qm6AlZH3b1ATQN-3">
          <mxGeometry relative="1" as="geometry" />
        </mxCell>
        <mxCell id="J66KZ8qm6AlZH3b1ATQN-12" value="tiene" style="rhombus;whiteSpace=wrap;html=1;sketch=1;hachureGap=4;jiggle=2;curveFitting=1;fontFamily=Architects Daughter;fontSource=https%3A%2F%2Ffonts.googleapis.com%2Fcss%3Ffamily%3DArchitects%2BDaughter;fontSize=20;fillColor=#e1d5e7;strokeColor=#9673a6;" vertex="1" parent="1">
          <mxGeometry x="80" y="-353" width="80" height="80" as="geometry" />
        </mxCell>
        <mxCell id="J66KZ8qm6AlZH3b1ATQN-23" style="edgeStyle=orthogonalEdgeStyle;sketch=1;hachureGap=4;jiggle=2;curveFitting=1;orthogonalLoop=1;jettySize=auto;html=1;entryX=0.5;entryY=0;entryDx=0;entryDy=0;fontFamily=Architects Daughter;fontSource=https%3A%2F%2Ffonts.googleapis.com%2Fcss%3Ffamily%3DArchitects%2BDaughter;fontSize=16;" edge="1" parent="1" source="J66KZ8qm6AlZH3b1ATQN-13" target="J66KZ8qm6AlZH3b1ATQN-4">
          <mxGeometry relative="1" as="geometry" />
        </mxCell>
        <mxCell id="J66KZ8qm6AlZH3b1ATQN-13" value="real;iza" style="rhombus;whiteSpace=wrap;html=1;sketch=1;hachureGap=4;jiggle=2;curveFitting=1;fontFamily=Architects Daughter;fontSource=https%3A%2F%2Ffonts.googleapis.com%2Fcss%3Ffamily%3DArchitects%2BDaughter;fontSize=20;fillColor=#e1d5e7;strokeColor=#9673a6;" vertex="1" parent="1">
          <mxGeometry x="70" y="-243" width="80" height="80" as="geometry" />
        </mxCell>
        <mxCell id="J66KZ8qm6AlZH3b1ATQN-18" value="1" style="text;html=1;align=center;verticalAlign=middle;resizable=0;points=[];autosize=1;strokeColor=none;fillColor=none;fontSize=20;fontFamily=Architects Daughter;" vertex="1" parent="1">
          <mxGeometry x="5" y="-370" width="30" height="40" as="geometry" />
        </mxCell>
        <mxCell id="J66KZ8qm6AlZH3b1ATQN-19" value="N" style="text;html=1;align=center;verticalAlign=middle;resizable=0;points=[];autosize=1;strokeColor=none;fillColor=none;fontSize=20;fontFamily=Architects Daughter;" vertex="1" parent="1">
          <mxGeometry x="170" y="-370" width="40" height="40" as="geometry" />
        </mxCell>
        <mxCell id="J66KZ8qm6AlZH3b1ATQN-20" value="1" style="text;html=1;align=center;verticalAlign=middle;resizable=0;points=[];autosize=1;strokeColor=none;fillColor=none;fontSize=20;fontFamily=Architects Daughter;" vertex="1" parent="1">
          <mxGeometry x="360" y="-273" width="30" height="40" as="geometry" />
        </mxCell>
        <mxCell id="J66KZ8qm6AlZH3b1ATQN-21" value="N" style="text;html=1;align=center;verticalAlign=middle;resizable=0;points=[];autosize=1;strokeColor=none;fillColor=none;fontSize=20;fontFamily=Architects Daughter;" vertex="1" parent="1">
          <mxGeometry x="50" y="-153" width="40" height="40" as="geometry" />
        </mxCell>
        <mxCell id="J66KZ8qm6AlZH3b1ATQN-25" style="edgeStyle=orthogonalEdgeStyle;sketch=1;hachureGap=4;jiggle=2;curveFitting=1;orthogonalLoop=1;jettySize=auto;html=1;entryX=0.465;entryY=0.06;entryDx=0;entryDy=0;entryPerimeter=0;fontFamily=Architects Daughter;fontSource=https%3A%2F%2Ffonts.googleapis.com%2Fcss%3Ffamily%3DArchitects%2BDaughter;fontSize=16;" edge="1" parent="1" source="J66KZ8qm6AlZH3b1ATQN-22" target="J66KZ8qm6AlZH3b1ATQN-5">
          <mxGeometry relative="1" as="geometry" />
        </mxCell>
        <mxCell id="J66KZ8qm6AlZH3b1ATQN-26" style="edgeStyle=orthogonalEdgeStyle;sketch=1;hachureGap=4;jiggle=2;curveFitting=1;orthogonalLoop=1;jettySize=auto;html=1;entryX=0.5;entryY=0;entryDx=0;entryDy=0;fontFamily=Architects Daughter;fontSource=https%3A%2F%2Ffonts.googleapis.com%2Fcss%3Ffamily%3DArchitects%2BDaughter;fontSize=16;" edge="1" parent="1" source="J66KZ8qm6AlZH3b1ATQN-22" target="J66KZ8qm6AlZH3b1ATQN-6">
          <mxGeometry relative="1" as="geometry" />
        </mxCell>
        <mxCell id="J66KZ8qm6AlZH3b1ATQN-22" value="tiene" style="rhombus;whiteSpace=wrap;html=1;sketch=1;hachureGap=4;jiggle=2;curveFitting=1;fontFamily=Architects Daughter;fontSource=https%3A%2F%2Ffonts.googleapis.com%2Fcss%3Ffamily%3DArchitects%2BDaughter;fontSize=20;fillColor=#e1d5e7;strokeColor=#9673a6;" vertex="1" parent="1">
          <mxGeometry x="70" y="7" width="80" height="80" as="geometry" />
        </mxCell>
        <mxCell id="J66KZ8qm6AlZH3b1ATQN-27" value="1" style="text;html=1;align=center;verticalAlign=middle;resizable=0;points=[];autosize=1;strokeColor=none;fillColor=none;fontSize=20;fontFamily=Architects Daughter;" vertex="1" parent="1">
          <mxGeometry x="130" y="-33" width="30" height="40" as="geometry" />
        </mxCell>
        <mxCell id="J66KZ8qm6AlZH3b1ATQN-28" value="1" style="text;html=1;align=center;verticalAlign=middle;resizable=0;points=[];autosize=1;strokeColor=none;fillColor=none;fontSize=20;fontFamily=Architects Daughter;" vertex="1" parent="1">
          <mxGeometry x="-180" y="47" width="30" height="40" as="geometry" />
        </mxCell>
        <mxCell id="J66KZ8qm6AlZH3b1ATQN-29" value="1" style="text;html=1;align=center;verticalAlign=middle;resizable=0;points=[];autosize=1;strokeColor=none;fillColor=none;fontSize=20;fontFamily=Architects Daughter;" vertex="1" parent="1">
          <mxGeometry x="370" y="47" width="30" height="40" as="geometry" />
        </mxCell>
        <mxCell id="J66KZ8qm6AlZH3b1ATQN-32" style="edgeStyle=orthogonalEdgeStyle;sketch=1;hachureGap=4;jiggle=2;curveFitting=1;orthogonalLoop=1;jettySize=auto;html=1;entryX=0.605;entryY=0;entryDx=0;entryDy=0;entryPerimeter=0;fontFamily=Architects Daughter;fontSource=https%3A%2F%2Ffonts.googleapis.com%2Fcss%3Ffamily%3DArchitects%2BDaughter;fontSize=16;" edge="1" parent="1" source="J66KZ8qm6AlZH3b1ATQN-30" target="J66KZ8qm6AlZH3b1ATQN-10">
          <mxGeometry relative="1" as="geometry" />
        </mxCell>
        <mxCell id="J66KZ8qm6AlZH3b1ATQN-33" style="edgeStyle=orthogonalEdgeStyle;sketch=1;hachureGap=4;jiggle=2;curveFitting=1;orthogonalLoop=1;jettySize=auto;html=1;entryX=0.5;entryY=0;entryDx=0;entryDy=0;fontFamily=Architects Daughter;fontSource=https%3A%2F%2Ffonts.googleapis.com%2Fcss%3Ffamily%3DArchitects%2BDaughter;fontSize=16;" edge="1" parent="1" source="J66KZ8qm6AlZH3b1ATQN-30" target="J66KZ8qm6AlZH3b1ATQN-8">
          <mxGeometry relative="1" as="geometry" />
        </mxCell>
        <mxCell id="J66KZ8qm6AlZH3b1ATQN-34" style="edgeStyle=orthogonalEdgeStyle;sketch=1;hachureGap=4;jiggle=2;curveFitting=1;orthogonalLoop=1;jettySize=auto;html=1;entryX=0.5;entryY=0;entryDx=0;entryDy=0;fontFamily=Architects Daughter;fontSource=https%3A%2F%2Ffonts.googleapis.com%2Fcss%3Ffamily%3DArchitects%2BDaughter;fontSize=16;" edge="1" parent="1" source="J66KZ8qm6AlZH3b1ATQN-30" target="J66KZ8qm6AlZH3b1ATQN-9">
          <mxGeometry relative="1" as="geometry" />
        </mxCell>
        <mxCell id="J66KZ8qm6AlZH3b1ATQN-30" value="tiene" style="rhombus;whiteSpace=wrap;html=1;sketch=1;hachureGap=4;jiggle=2;curveFitting=1;fontFamily=Architects Daughter;fontSource=https%3A%2F%2Ffonts.googleapis.com%2Fcss%3Ffamily%3DArchitects%2BDaughter;fontSize=20;fillColor=#e1d5e7;strokeColor=#9673a6;" vertex="1" parent="1">
          <mxGeometry x="310" y="180" width="80" height="80" as="geometry" />
        </mxCell>
        <mxCell id="J66KZ8qm6AlZH3b1ATQN-35" value="1" style="text;html=1;align=center;verticalAlign=middle;resizable=0;points=[];autosize=1;strokeColor=none;fillColor=none;fontSize=20;fontFamily=Architects Daughter;" vertex="1" parent="1">
          <mxGeometry x="400" y="170" width="30" height="40" as="geometry" />
        </mxCell>
        <mxCell id="J66KZ8qm6AlZH3b1ATQN-36" value="1" style="text;html=1;align=center;verticalAlign=middle;resizable=0;points=[];autosize=1;strokeColor=none;fillColor=none;fontSize=20;fontFamily=Architects Daughter;" vertex="1" parent="1">
          <mxGeometry x="360" y="250" width="30" height="40" as="geometry" />
        </mxCell>
        <mxCell id="J66KZ8qm6AlZH3b1ATQN-37" value="1" style="text;html=1;align=center;verticalAlign=middle;resizable=0;points=[];autosize=1;strokeColor=none;fillColor=none;fontSize=20;fontFamily=Architects Daughter;" vertex="1" parent="1">
          <mxGeometry x="570" y="240" width="30" height="40" as="geometry" />
        </mxCell>
        <mxCell id="J66KZ8qm6AlZH3b1ATQN-38" value="1" style="text;html=1;align=center;verticalAlign=middle;resizable=0;points=[];autosize=1;strokeColor=none;fillColor=none;fontSize=20;fontFamily=Architects Daughter;" vertex="1" parent="1">
          <mxGeometry x="-420" y="240" width="30" height="40" as="geometry" />
        </mxCell>
        <mxCell id="J66KZ8qm6AlZH3b1ATQN-39" value="marca" style="ellipse;whiteSpace=wrap;html=1;sketch=1;hachureGap=4;jiggle=2;curveFitting=1;fontFamily=Architects Daughter;fontSource=https%3A%2F%2Ffonts.googleapis.com%2Fcss%3Ffamily%3DArchitects%2BDaughter;fontSize=20;fillColor=#dae8fc;strokeColor=#6c8ebf;" vertex="1" parent="1">
          <mxGeometry x="-290" y="-410" width="130" height="40" as="geometry" />
        </mxCell>
        <mxCell id="J66KZ8qm6AlZH3b1ATQN-40" value="modelo" style="ellipse;whiteSpace=wrap;html=1;sketch=1;hachureGap=4;jiggle=2;curveFitting=1;fontFamily=Architects Daughter;fontSource=https%3A%2F%2Ffonts.googleapis.com%2Fcss%3Ffamily%3DArchitects%2BDaughter;fontSize=20;fillColor=#dae8fc;strokeColor=#6c8ebf;" vertex="1" parent="1">
          <mxGeometry x="-370" y="-353" width="130" height="40" as="geometry" />
        </mxCell>
        <mxCell id="J66KZ8qm6AlZH3b1ATQN-41" value="pantalla" style="ellipse;whiteSpace=wrap;html=1;sketch=1;hachureGap=4;jiggle=2;curveFitting=1;fontFamily=Architects Daughter;fontSource=https%3A%2F%2Ffonts.googleapis.com%2Fcss%3Ffamily%3DArchitects%2BDaughter;fontSize=20;fillColor=#dae8fc;strokeColor=#6c8ebf;" vertex="1" parent="1">
          <mxGeometry x="-350" y="-273" width="130" height="40" as="geometry" />
        </mxCell>
        <mxCell id="J66KZ8qm6AlZH3b1ATQN-42" value="" style="endArrow=none;html=1;sketch=1;hachureGap=4;jiggle=2;curveFitting=1;fontFamily=Architects Daughter;fontSource=https%3A%2F%2Ffonts.googleapis.com%2Fcss%3Ffamily%3DArchitects%2BDaughter;fontSize=16;exitX=0.992;exitY=0.675;exitDx=0;exitDy=0;exitPerimeter=0;" edge="1" parent="1" source="J66KZ8qm6AlZH3b1ATQN-39" target="J66KZ8qm6AlZH3b1ATQN-1">
          <mxGeometry width="50" height="50" relative="1" as="geometry">
            <mxPoint x="300" y="-180" as="sourcePoint" />
            <mxPoint x="350" y="-230" as="targetPoint" />
          </mxGeometry>
        </mxCell>
        <mxCell id="J66KZ8qm6AlZH3b1ATQN-43" value="" style="endArrow=none;html=1;sketch=1;hachureGap=4;jiggle=2;curveFitting=1;fontFamily=Architects Daughter;fontSource=https%3A%2F%2Ffonts.googleapis.com%2Fcss%3Ffamily%3DArchitects%2BDaughter;fontSize=16;exitX=1;exitY=0.5;exitDx=0;exitDy=0;entryX=0;entryY=0.5;entryDx=0;entryDy=0;" edge="1" parent="1" source="J66KZ8qm6AlZH3b1ATQN-40" target="J66KZ8qm6AlZH3b1ATQN-1">
          <mxGeometry width="50" height="50" relative="1" as="geometry">
            <mxPoint x="-171" y="-393" as="sourcePoint" />
            <mxPoint x="-116" y="-323" as="targetPoint" />
          </mxGeometry>
        </mxCell>
        <mxCell id="J66KZ8qm6AlZH3b1ATQN-44" value="" style="endArrow=none;html=1;sketch=1;hachureGap=4;jiggle=2;curveFitting=1;fontFamily=Architects Daughter;fontSource=https%3A%2F%2Ffonts.googleapis.com%2Fcss%3Ffamily%3DArchitects%2BDaughter;fontSize=16;entryX=1;entryY=0.5;entryDx=0;entryDy=0;exitX=0.25;exitY=1;exitDx=0;exitDy=0;" edge="1" parent="1" source="J66KZ8qm6AlZH3b1ATQN-1" target="J66KZ8qm6AlZH3b1ATQN-41">
          <mxGeometry width="50" height="50" relative="1" as="geometry">
            <mxPoint x="300" y="-180" as="sourcePoint" />
            <mxPoint x="350" y="-230" as="targetPoint" />
          </mxGeometry>
        </mxCell>
        <mxCell id="J66KZ8qm6AlZH3b1ATQN-45" value="nombre" style="ellipse;whiteSpace=wrap;html=1;sketch=1;hachureGap=4;jiggle=2;curveFitting=1;fontFamily=Architects Daughter;fontSource=https%3A%2F%2Ffonts.googleapis.com%2Fcss%3Ffamily%3DArchitects%2BDaughter;fontSize=20;fillColor=#dae8fc;strokeColor=#6c8ebf;" vertex="1" parent="1">
          <mxGeometry x="290" y="-410" width="130" height="40" as="geometry" />
        </mxCell>
        <mxCell id="J66KZ8qm6AlZH3b1ATQN-46" value="sexo" style="ellipse;whiteSpace=wrap;html=1;sketch=1;hachureGap=4;jiggle=2;curveFitting=1;fontFamily=Architects Daughter;fontSource=https%3A%2F%2Ffonts.googleapis.com%2Fcss%3Ffamily%3DArchitects%2BDaughter;fontSize=20;fillColor=#dae8fc;strokeColor=#6c8ebf;" vertex="1" parent="1">
          <mxGeometry x="450" y="-380" width="130" height="40" as="geometry" />
        </mxCell>
        <mxCell id="J66KZ8qm6AlZH3b1ATQN-47" value="altura" style="ellipse;whiteSpace=wrap;html=1;sketch=1;hachureGap=4;jiggle=2;curveFitting=1;fontFamily=Architects Daughter;fontSource=https%3A%2F%2Ffonts.googleapis.com%2Fcss%3Ffamily%3DArchitects%2BDaughter;fontSize=20;fillColor=#dae8fc;strokeColor=#6c8ebf;" vertex="1" parent="1">
          <mxGeometry x="410" y="-250" width="130" height="40" as="geometry" />
        </mxCell>
        <mxCell id="J66KZ8qm6AlZH3b1ATQN-48" value="peso" style="ellipse;whiteSpace=wrap;html=1;sketch=1;hachureGap=4;jiggle=2;curveFitting=1;fontFamily=Architects Daughter;fontSource=https%3A%2F%2Ffonts.googleapis.com%2Fcss%3Ffamily%3DArchitects%2BDaughter;fontSize=20;fillColor=#dae8fc;strokeColor=#6c8ebf;" vertex="1" parent="1">
          <mxGeometry x="465" y="-313" width="130" height="40" as="geometry" />
        </mxCell>
        <mxCell id="J66KZ8qm6AlZH3b1ATQN-49" value="" style="endArrow=none;html=1;sketch=1;hachureGap=4;jiggle=2;curveFitting=1;fontFamily=Architects Daughter;fontSource=https%3A%2F%2Ffonts.googleapis.com%2Fcss%3Ffamily%3DArchitects%2BDaughter;fontSize=16;entryX=0.5;entryY=1;entryDx=0;entryDy=0;exitX=0.5;exitY=0;exitDx=0;exitDy=0;" edge="1" parent="1" source="J66KZ8qm6AlZH3b1ATQN-3" target="J66KZ8qm6AlZH3b1ATQN-45">
          <mxGeometry width="50" height="50" relative="1" as="geometry">
            <mxPoint x="300" y="-80" as="sourcePoint" />
            <mxPoint x="350" y="-130" as="targetPoint" />
          </mxGeometry>
        </mxCell>
        <mxCell id="J66KZ8qm6AlZH3b1ATQN-50" value="" style="endArrow=none;html=1;sketch=1;hachureGap=4;jiggle=2;curveFitting=1;fontFamily=Architects Daughter;fontSource=https%3A%2F%2Ffonts.googleapis.com%2Fcss%3Ffamily%3DArchitects%2BDaughter;fontSize=16;entryX=0;entryY=0.5;entryDx=0;entryDy=0;" edge="1" parent="1" target="J66KZ8qm6AlZH3b1ATQN-46">
          <mxGeometry width="50" height="50" relative="1" as="geometry">
            <mxPoint x="330" y="-330" as="sourcePoint" />
            <mxPoint x="350" y="-130" as="targetPoint" />
          </mxGeometry>
        </mxCell>
        <mxCell id="J66KZ8qm6AlZH3b1ATQN-51" value="" style="endArrow=none;html=1;sketch=1;hachureGap=4;jiggle=2;curveFitting=1;fontFamily=Architects Daughter;fontSource=https%3A%2F%2Ffonts.googleapis.com%2Fcss%3Ffamily%3DArchitects%2BDaughter;fontSize=16;entryX=0;entryY=0.5;entryDx=0;entryDy=0;exitX=1;exitY=0.5;exitDx=0;exitDy=0;" edge="1" parent="1" source="J66KZ8qm6AlZH3b1ATQN-3" target="J66KZ8qm6AlZH3b1ATQN-48">
          <mxGeometry width="50" height="50" relative="1" as="geometry">
            <mxPoint x="300" y="-80" as="sourcePoint" />
            <mxPoint x="350" y="-130" as="targetPoint" />
          </mxGeometry>
        </mxCell>
        <mxCell id="J66KZ8qm6AlZH3b1ATQN-52" value="" style="endArrow=none;html=1;sketch=1;hachureGap=4;jiggle=2;curveFitting=1;fontFamily=Architects Daughter;fontSource=https%3A%2F%2Ffonts.googleapis.com%2Fcss%3Ffamily%3DArchitects%2BDaughter;fontSize=16;entryX=0.5;entryY=0;entryDx=0;entryDy=0;exitX=1;exitY=0.5;exitDx=0;exitDy=0;" edge="1" parent="1" source="J66KZ8qm6AlZH3b1ATQN-3" target="J66KZ8qm6AlZH3b1ATQN-47">
          <mxGeometry width="50" height="50" relative="1" as="geometry">
            <mxPoint x="300" y="-80" as="sourcePoint" />
            <mxPoint x="350" y="-130" as="targetPoint" />
          </mxGeometry>
        </mxCell>
        <mxCell id="J66KZ8qm6AlZH3b1ATQN-53" value="" style="ellipse;whiteSpace=wrap;html=1;sketch=1;hachureGap=4;jiggle=2;curveFitting=1;fontFamily=Architects Daughter;fontSource=https%3A%2F%2Ffonts.googleapis.com%2Fcss%3Ffamily%3DArchitects%2BDaughter;fontSize=20;fillColor=#dae8fc;strokeColor=#6c8ebf;" vertex="1" parent="1">
          <mxGeometry x="440" y="-385" width="150" height="50" as="geometry" />
        </mxCell>
        <mxCell id="J66KZ8qm6AlZH3b1ATQN-54" value="frecuencia cardÃ­aca" style="ellipse;whiteSpace=wrap;html=1;sketch=1;hachureGap=4;jiggle=2;curveFitting=1;fontFamily=Architects Daughter;fontSource=https%3A%2F%2Ffonts.googleapis.com%2Fcss%3Ffamily%3DArchitects%2BDaughter;fontSize=20;fillColor=#dae8fc;strokeColor=#6c8ebf;" vertex="1" parent="1">
          <mxGeometry x="190" y="-153" width="300" height="40" as="geometry" />
        </mxCell>
        <mxCell id="J66KZ8qm6AlZH3b1ATQN-55" value="calorÃ­as quemadas" style="ellipse;whiteSpace=wrap;html=1;sketch=1;hachureGap=4;jiggle=2;curveFitting=1;fontFamily=Architects Daughter;fontSource=https%3A%2F%2Ffonts.googleapis.com%2Fcss%3Ffamily%3DArchitects%2BDaughter;fontSize=20;fillColor=#dae8fc;strokeColor=#6c8ebf;" vertex="1" parent="1">
          <mxGeometry x="240" y="-73" width="230" height="40" as="geometry" />
        </mxCell>
        <mxCell id="J66KZ8qm6AlZH3b1ATQN-56" value="tiempo tot entrenamiento" style="ellipse;whiteSpace=wrap;html=1;sketch=1;hachureGap=4;jiggle=2;curveFitting=1;fontFamily=Architects Daughter;fontSource=https%3A%2F%2Ffonts.googleapis.com%2Fcss%3Ffamily%3DArchitects%2BDaughter;fontSize=20;fillColor=#dae8fc;strokeColor=#6c8ebf;" vertex="1" parent="1">
          <mxGeometry x="-370" y="-80" width="310" height="40" as="geometry" />
        </mxCell>
        <mxCell id="J66KZ8qm6AlZH3b1ATQN-57" value="" style="endArrow=none;html=1;sketch=1;hachureGap=4;jiggle=2;curveFitting=1;fontFamily=Architects Daughter;fontSource=https%3A%2F%2Ffonts.googleapis.com%2Fcss%3Ffamily%3DArchitects%2BDaughter;fontSize=16;entryX=1;entryY=0.5;entryDx=0;entryDy=0;exitX=0;exitY=0.5;exitDx=0;exitDy=0;" edge="1" parent="1" source="J66KZ8qm6AlZH3b1ATQN-55" target="J66KZ8qm6AlZH3b1ATQN-4">
          <mxGeometry width="50" height="50" relative="1" as="geometry">
            <mxPoint x="300" y="20" as="sourcePoint" />
            <mxPoint x="350" y="-30" as="targetPoint" />
          </mxGeometry>
        </mxCell>
        <mxCell id="J66KZ8qm6AlZH3b1ATQN-58" value="" style="endArrow=none;html=1;sketch=1;hachureGap=4;jiggle=2;curveFitting=1;fontFamily=Architects Daughter;fontSource=https%3A%2F%2Ffonts.googleapis.com%2Fcss%3Ffamily%3DArchitects%2BDaughter;fontSize=16;entryX=0;entryY=0.5;entryDx=0;entryDy=0;exitX=0.75;exitY=0;exitDx=0;exitDy=0;" edge="1" parent="1" source="J66KZ8qm6AlZH3b1ATQN-4" target="J66KZ8qm6AlZH3b1ATQN-54">
          <mxGeometry width="50" height="50" relative="1" as="geometry">
            <mxPoint x="300" y="20" as="sourcePoint" />
            <mxPoint x="350" y="-30" as="targetPoint" />
          </mxGeometry>
        </mxCell>
        <mxCell id="J66KZ8qm6AlZH3b1ATQN-59" value="" style="endArrow=none;html=1;sketch=1;hachureGap=4;jiggle=2;curveFitting=1;fontFamily=Architects Daughter;fontSource=https%3A%2F%2Ffonts.googleapis.com%2Fcss%3Ffamily%3DArchitects%2BDaughter;fontSize=16;exitX=1;exitY=0.5;exitDx=0;exitDy=0;entryX=0;entryY=0.5;entryDx=0;entryDy=0;" edge="1" parent="1" source="J66KZ8qm6AlZH3b1ATQN-56" target="J66KZ8qm6AlZH3b1ATQN-4">
          <mxGeometry width="50" height="50" relative="1" as="geometry">
            <mxPoint x="300" y="20" as="sourcePoint" />
            <mxPoint x="350" y="-30" as="targetPoint" />
          </mxGeometry>
        </mxCell>
        <mxCell id="J66KZ8qm6AlZH3b1ATQN-60" value="distancia recorrida" style="ellipse;whiteSpace=wrap;html=1;sketch=1;hachureGap=4;jiggle=2;curveFitting=1;fontFamily=Architects Daughter;fontSource=https%3A%2F%2Ffonts.googleapis.com%2Fcss%3Ffamily%3DArchitects%2BDaughter;fontSize=20;fillColor=#dae8fc;strokeColor=#6c8ebf;" vertex="1" parent="1">
          <mxGeometry x="560" y="87" width="240" height="40" as="geometry" />
        </mxCell>
        <mxCell id="J66KZ8qm6AlZH3b1ATQN-61" value="velocidad prom" style="ellipse;whiteSpace=wrap;html=1;sketch=1;hachureGap=4;jiggle=2;curveFitting=1;fontFamily=Architects Daughter;fontSource=https%3A%2F%2Ffonts.googleapis.com%2Fcss%3Ffamily%3DArchitects%2BDaughter;fontSize=20;fillColor=#dae8fc;strokeColor=#6c8ebf;" vertex="1" parent="1">
          <mxGeometry x="560" y="157" width="220" height="40" as="geometry" />
        </mxCell>
        <mxCell id="J66KZ8qm6AlZH3b1ATQN-63" value="" style="endArrow=none;html=1;sketch=1;hachureGap=4;jiggle=2;curveFitting=1;fontFamily=Architects Daughter;fontSource=https%3A%2F%2Ffonts.googleapis.com%2Fcss%3Ffamily%3DArchitects%2BDaughter;fontSize=16;entryX=0;entryY=0.5;entryDx=0;entryDy=0;exitX=1;exitY=0.5;exitDx=0;exitDy=0;" edge="1" parent="1" source="J66KZ8qm6AlZH3b1ATQN-5" target="J66KZ8qm6AlZH3b1ATQN-61">
          <mxGeometry width="50" height="50" relative="1" as="geometry">
            <mxPoint x="300" y="20" as="sourcePoint" />
            <mxPoint x="500.00000000000637" y="137" as="targetPoint" />
          </mxGeometry>
        </mxCell>
        <mxCell id="J66KZ8qm6AlZH3b1ATQN-64" value="# golpes lanzados" style="ellipse;whiteSpace=wrap;html=1;sketch=1;hachureGap=4;jiggle=2;curveFitting=1;fontFamily=Architects Daughter;fontSource=https%3A%2F%2Ffonts.googleapis.com%2Fcss%3Ffamily%3DArchitects%2BDaughter;fontSize=20;fillColor=#dae8fc;strokeColor=#6c8ebf;" vertex="1" parent="1">
          <mxGeometry x="-510" y="64.5" width="230" height="40" as="geometry" />
        </mxCell>
        <mxCell id="J66KZ8qm6AlZH3b1ATQN-65" value="intensidad golpes" style="ellipse;whiteSpace=wrap;html=1;sketch=1;hachureGap=4;jiggle=2;curveFitting=1;fontFamily=Architects Daughter;fontSource=https%3A%2F%2Ffonts.googleapis.com%2Fcss%3Ffamily%3DArchitects%2BDaughter;fontSize=20;fillColor=#dae8fc;strokeColor=#6c8ebf;" vertex="1" parent="1">
          <mxGeometry x="-540" y="139.5" width="200" height="40" as="geometry" />
        </mxCell>
        <mxCell id="J66KZ8qm6AlZH3b1ATQN-66" value="" style="endArrow=none;html=1;sketch=1;hachureGap=4;jiggle=2;curveFitting=1;fontFamily=Architects Daughter;fontSource=https%3A%2F%2Ffonts.googleapis.com%2Fcss%3Ffamily%3DArchitects%2BDaughter;fontSize=16;exitX=1;exitY=0.5;exitDx=0;exitDy=0;entryX=0;entryY=0.5;entryDx=0;entryDy=0;" edge="1" parent="1" source="J66KZ8qm6AlZH3b1ATQN-65" target="J66KZ8qm6AlZH3b1ATQN-6">
          <mxGeometry width="50" height="50" relative="1" as="geometry">
            <mxPoint x="80" y="170" as="sourcePoint" />
            <mxPoint x="130" y="120" as="targetPoint" />
          </mxGeometry>
        </mxCell>
        <mxCell id="J66KZ8qm6AlZH3b1ATQN-67" value="" style="endArrow=none;html=1;sketch=1;hachureGap=4;jiggle=2;curveFitting=1;fontFamily=Architects Daughter;fontSource=https%3A%2F%2Ffonts.googleapis.com%2Fcss%3Ffamily%3DArchitects%2BDaughter;fontSize=16;entryX=1;entryY=0.5;entryDx=0;entryDy=0;exitX=0;exitY=0.5;exitDx=0;exitDy=0;" edge="1" parent="1" source="J66KZ8qm6AlZH3b1ATQN-6" target="J66KZ8qm6AlZH3b1ATQN-64">
          <mxGeometry width="50" height="50" relative="1" as="geometry">
            <mxPoint x="80" y="170" as="sourcePoint" />
            <mxPoint x="130" y="120" as="targetPoint" />
          </mxGeometry>
        </mxCell>
        <mxCell id="J66KZ8qm6AlZH3b1ATQN-68" value="" style="endArrow=none;html=1;sketch=1;hachureGap=4;jiggle=2;curveFitting=1;fontFamily=Architects Daughter;fontSource=https%3A%2F%2Ffonts.googleapis.com%2Fcss%3Ffamily%3DArchitects%2BDaughter;fontSize=16;entryX=0;entryY=0.5;entryDx=0;entryDy=0;" edge="1" parent="1" target="J66KZ8qm6AlZH3b1ATQN-60">
          <mxGeometry width="50" height="50" relative="1" as="geometry">
            <mxPoint x="450" y="130" as="sourcePoint" />
            <mxPoint x="230" y="40" as="targetPoint" />
          </mxGeometry>
        </mxCell>
        <mxCell id="J66KZ8qm6AlZH3b1ATQN-69" value="# pasos dados" style="ellipse;whiteSpace=wrap;html=1;sketch=1;hachureGap=4;jiggle=2;curveFitting=1;fontFamily=Architects Daughter;fontSource=https%3A%2F%2Ffonts.googleapis.com%2Fcss%3Ffamily%3DArchitects%2BDaughter;fontSize=20;fillColor=#dae8fc;strokeColor=#6c8ebf;" vertex="1" parent="1">
          <mxGeometry x="420" y="450" width="220" height="40" as="geometry" />
        </mxCell>
        <mxCell id="J66KZ8qm6AlZH3b1ATQN-70" value="estilo nataciÃ³n" style="ellipse;whiteSpace=wrap;html=1;sketch=1;hachureGap=4;jiggle=2;curveFitting=1;fontFamily=Architects Daughter;fontSource=https%3A%2F%2Ffonts.googleapis.com%2Fcss%3Ffamily%3DArchitects%2BDaughter;fontSize=20;fillColor=#dae8fc;strokeColor=#6c8ebf;" vertex="1" parent="1">
          <mxGeometry x="-145" y="450" width="220" height="40" as="geometry" />
        </mxCell>
        <mxCell id="J66KZ8qm6AlZH3b1ATQN-71" value="# vueltas" style="ellipse;whiteSpace=wrap;html=1;sketch=1;hachureGap=4;jiggle=2;curveFitting=1;fontFamily=Architects Daughter;fontSource=https%3A%2F%2Ffonts.googleapis.com%2Fcss%3Ffamily%3DArchitects%2BDaughter;fontSize=20;fillColor=#dae8fc;strokeColor=#6c8ebf;" vertex="1" parent="1">
          <mxGeometry x="25" y="530" width="220" height="40" as="geometry" />
        </mxCell>
        <mxCell id="J66KZ8qm6AlZH3b1ATQN-72" value="# tot brazadas" style="ellipse;whiteSpace=wrap;html=1;sketch=1;hachureGap=4;jiggle=2;curveFitting=1;fontFamily=Architects Daughter;fontSource=https%3A%2F%2Ffonts.googleapis.com%2Fcss%3Ffamily%3DArchitects%2BDaughter;fontSize=20;fillColor=#dae8fc;strokeColor=#6c8ebf;" vertex="1" parent="1">
          <mxGeometry x="190" y="450" width="220" height="40" as="geometry" />
        </mxCell>
        <mxCell id="J66KZ8qm6AlZH3b1ATQN-73" value="" style="endArrow=none;html=1;sketch=1;hachureGap=4;jiggle=2;curveFitting=1;fontFamily=Architects Daughter;fontSource=https%3A%2F%2Ffonts.googleapis.com%2Fcss%3Ffamily%3DArchitects%2BDaughter;fontSize=16;exitX=0.5;exitY=1;exitDx=0;exitDy=0;entryX=0.5;entryY=0;entryDx=0;entryDy=0;" edge="1" parent="1" source="J66KZ8qm6AlZH3b1ATQN-9" target="J66KZ8qm6AlZH3b1ATQN-71">
          <mxGeometry width="50" height="50" relative="1" as="geometry">
            <mxPoint x="180" y="310" as="sourcePoint" />
            <mxPoint x="230" y="260" as="targetPoint" />
          </mxGeometry>
        </mxCell>
        <mxCell id="J66KZ8qm6AlZH3b1ATQN-74" value="" style="endArrow=none;html=1;sketch=1;hachureGap=4;jiggle=2;curveFitting=1;fontFamily=Architects Daughter;fontSource=https%3A%2F%2Ffonts.googleapis.com%2Fcss%3Ffamily%3DArchitects%2BDaughter;fontSize=16;entryX=0.5;entryY=0;entryDx=0;entryDy=0;exitX=0.5;exitY=1;exitDx=0;exitDy=0;" edge="1" parent="1" source="J66KZ8qm6AlZH3b1ATQN-9" target="J66KZ8qm6AlZH3b1ATQN-72">
          <mxGeometry width="50" height="50" relative="1" as="geometry">
            <mxPoint x="180" y="310" as="sourcePoint" />
            <mxPoint x="230" y="260" as="targetPoint" />
          </mxGeometry>
        </mxCell>
        <mxCell id="J66KZ8qm6AlZH3b1ATQN-75" value="" style="endArrow=none;html=1;sketch=1;hachureGap=4;jiggle=2;curveFitting=1;fontFamily=Architects Daughter;fontSource=https%3A%2F%2Ffonts.googleapis.com%2Fcss%3Ffamily%3DArchitects%2BDaughter;fontSize=16;entryX=0.536;entryY=-0.106;entryDx=0;entryDy=0;entryPerimeter=0;exitX=0.5;exitY=1;exitDx=0;exitDy=0;" edge="1" parent="1" source="J66KZ8qm6AlZH3b1ATQN-9" target="J66KZ8qm6AlZH3b1ATQN-70">
          <mxGeometry width="50" height="50" relative="1" as="geometry">
            <mxPoint x="180" y="310" as="sourcePoint" />
            <mxPoint x="230" y="260" as="targetPoint" />
          </mxGeometry>
        </mxCell>
        <mxCell id="J66KZ8qm6AlZH3b1ATQN-76" value="ruta GPS" style="ellipse;whiteSpace=wrap;html=1;sketch=1;hachureGap=4;jiggle=2;curveFitting=1;fontFamily=Architects Daughter;fontSource=https%3A%2F%2Ffonts.googleapis.com%2Fcss%3Ffamily%3DArchitects%2BDaughter;fontSize=20;fillColor=#dae8fc;strokeColor=#6c8ebf;" vertex="1" parent="1">
          <mxGeometry x="-600" y="450" width="220" height="40" as="geometry" />
        </mxCell>
        <mxCell id="J66KZ8qm6AlZH3b1ATQN-77" value="alt mÃ¡x alcanzada" style="ellipse;whiteSpace=wrap;html=1;sketch=1;hachureGap=4;jiggle=2;curveFitting=1;fontFamily=Architects Daughter;fontSource=https%3A%2F%2Ffonts.googleapis.com%2Fcss%3Ffamily%3DArchitects%2BDaughter;fontSize=20;fillColor=#dae8fc;strokeColor=#6c8ebf;" vertex="1" parent="1">
          <mxGeometry x="-430" y="530" width="220" height="40" as="geometry" />
        </mxCell>
        <mxCell id="J66KZ8qm6AlZH3b1ATQN-78" value="" style="endArrow=none;html=1;sketch=1;hachureGap=4;jiggle=2;curveFitting=1;fontFamily=Architects Daughter;fontSource=https%3A%2F%2Ffonts.googleapis.com%2Fcss%3Ffamily%3DArchitects%2BDaughter;fontSize=16;entryX=0.5;entryY=1;entryDx=0;entryDy=0;exitX=0.5;exitY=0;exitDx=0;exitDy=0;" edge="1" parent="1" source="J66KZ8qm6AlZH3b1ATQN-69" target="J66KZ8qm6AlZH3b1ATQN-10">
          <mxGeometry width="50" height="50" relative="1" as="geometry">
            <mxPoint x="-30" y="310" as="sourcePoint" />
            <mxPoint x="20" y="260" as="targetPoint" />
          </mxGeometry>
        </mxCell>
        <mxCell id="J66KZ8qm6AlZH3b1ATQN-80" value="" style="endArrow=none;html=1;sketch=1;hachureGap=4;jiggle=2;curveFitting=1;fontFamily=Architects Daughter;fontSource=https%3A%2F%2Ffonts.googleapis.com%2Fcss%3Ffamily%3DArchitects%2BDaughter;fontSize=16;exitX=0.5;exitY=1;exitDx=0;exitDy=0;entryX=0.5;entryY=0;entryDx=0;entryDy=0;" edge="1" parent="1" source="J66KZ8qm6AlZH3b1ATQN-8" target="J66KZ8qm6AlZH3b1ATQN-77">
          <mxGeometry width="50" height="50" relative="1" as="geometry">
            <mxPoint x="-30" y="310" as="sourcePoint" />
            <mxPoint x="20" y="260" as="targetPoint" />
          </mxGeometry>
        </mxCell>
        <mxCell id="J66KZ8qm6AlZH3b1ATQN-81" value="" style="endArrow=none;html=1;sketch=1;hachureGap=4;jiggle=2;curveFitting=1;fontFamily=Architects Daughter;fontSource=https%3A%2F%2Ffonts.googleapis.com%2Fcss%3Ffamily%3DArchitects%2BDaughter;fontSize=16;exitX=0.5;exitY=1;exitDx=0;exitDy=0;" edge="1" parent="1" source="J66KZ8qm6AlZH3b1ATQN-8" target="J66KZ8qm6AlZH3b1ATQN-76">
          <mxGeometry width="50" height="50" relative="1" as="geometry">
            <mxPoint x="-30" y="310" as="sourcePoint" />
            <mxPoint x="20" y="260" as="targetPoint" />
          </mxGeometry>
        </mxCell>
      </root>
    </mxGraphModel>
  </diagram>
</mxfile>
